<svg width="338" height="878" viewBox="0 0 338 878" fill="none" xmlns="http://www.w3.org/2000/svg">
<path d="M-153.706 445.091C-153.706 454.614 -161.434 462.381 -170.986 462.381H-243.72C-253.237 462.381 -261 454.649 -261 445.091C-261 435.568 -253.272 427.8 -243.72 427.8H-170.986C-161.469 427.8 -153.706 435.533 -153.706 445.091ZM-128.27 130.666C-134.996 123.935 -145.943 123.935 -152.67 130.666C-159.396 137.396 -159.396 148.35 -152.67 155.081L-99.2553 208.528C-95.8923 211.893 -91.456 213.576 -87.0557 213.576C-82.6194 213.576 -78.2189 211.893 -74.8562 208.528C-68.1301 201.798 -68.1301 190.844 -74.8562 184.113L-128.27 130.666ZM161.525 110.583C171.042 110.583 178.805 102.85 178.805 93.2919V17.2907C178.805 7.76784 171.077 0 161.525 0C152.008 0 144.245 7.73255 144.245 17.2907L144.28 93.3277C144.28 102.85 152.008 110.618 161.56 110.618L161.525 110.583ZM46.6822 700.795V790.686C46.6822 799.958 54.2311 807.511 63.4969 807.511H265.385C274.651 807.511 282.199 799.958 282.199 790.686V700.759C281.663 700.795 281.126 700.795 280.589 700.795H46.6458L46.6822 700.795ZM164.455 878C193.542 878 217.798 856.986 222.914 829.349H105.993C111.109 856.986 135.369 878 164.455 878ZM280.626 618.03H42.8172C26.0025 618.03 12.3715 631.706 12.3715 648.495C12.3715 665.285 26.0382 678.96 42.8172 678.96H280.626C297.441 678.96 311.072 665.285 311.072 648.495C311.072 631.67 297.405 618.03 280.626 618.03ZM464.049 28.212H463.799C421.869 28.212 387.666 62.2563 387.524 104.249L387.345 158.77L539.821 159.272L539.999 104.822C540.143 62.7218 506.048 28.3915 464.01 28.2476L464.049 28.212ZM78.9854 391.108C62.1707 391.108 48.5396 404.783 48.5396 421.644C48.5396 442.587 65.9267 452.109 82.0627 452.109H109.468V424.758C109.468 408.005 100.023 391.071 78.9506 391.071L78.9854 391.108ZM131.326 473.947V596.202H192.253V473.947H131.326ZM386.985 262.806L539.498 263.307L539.784 181.077L387.272 180.576L386.985 262.806ZM461.186 861.257L532.382 696.901L391.134 696.436L461.186 861.257ZM274.933 421.609C274.933 404.783 261.266 391.072 244.487 391.072C223.45 391.072 214.041 407.97 214.041 424.759V452.11H241.446C258.118 452.11 274.933 442.695 274.933 421.645V421.609ZM161.739 175.991C35.2007 175.991 -67.7352 278.981 -67.7352 405.607C-67.7352 468.649 -42.7271 527.394 2.63745 571.072C13.2993 581.347 21.8142 590.081 28.9333 598.065C33.3697 596.848 38.0207 596.167 42.8145 596.167H109.43V473.913H82.0252C49.9336 473.913 26.6784 451.933 26.6784 421.611C26.6784 392.757 50.1122 369.238 78.9478 369.238C109.251 369.238 131.289 392.579 131.289 424.726V452.077H192.216V424.726C192.216 392.579 214.182 369.238 244.485 369.238C273.321 369.238 296.755 392.722 296.755 421.611C296.755 451.933 273.499 473.913 241.444 473.913H214.039V596.167H280.654C285.448 596.167 290.135 596.848 294.535 598.065C301.655 590.082 310.134 581.347 320.831 571.072C338.434 554.103 352.994 534.737 364.264 513.508L365.016 299.077C325.16 223.112 247.566 175.991 161.739 175.991ZM385.526 674.558L538.075 675.059L539.398 285.1L386.886 284.599L385.526 674.558Z" fill="#F4F4F4"/>
</svg>
