<svg width="338" height="878" viewBox="0 0 338 878" fill="none" xmlns="http://www.w3.org/2000/svg">
<path d="M17.3855 601.766V618.871H51.0012V601.766H68.3867V642.686H269.613V601.766H286.999V618.871H320.614V601.766H338V905.234H320.614V885.462H286.999V905.234H269.613V862.444H68.4143V905.234H51.0287V885.462H17.3855V905.234H0V601.766H17.3855ZM140.02 759.646L175.533 722.796L198.531 744.934L162.632 782.252L140.02 759.646ZM197.32 707.67C196.247 706.653 195.01 706.13 193.607 706.185C192.204 706.185 190.966 706.735 189.975 707.808L181.778 716.333L204.775 738.553L213.055 729.891C214.073 728.873 214.458 727.581 214.458 726.178C214.458 724.776 213.908 723.456 212.918 722.548L197.32 707.67ZM154.269 790.97C151.243 791.987 148.162 792.895 145.136 793.912C142.11 794.93 139.084 795.92 136.003 796.937C128.796 799.247 124.862 800.567 124.009 800.815C123.157 801.035 123.707 797.707 125.467 790.75L131.189 768.832L131.657 768.337L154.269 790.97ZM269.613 660.067H68.4143V845.063H269.641V660.067H269.613ZM320.642 868.081V835.63H287.026V868.081H320.642ZM320.642 818.25V785.799H287.026V818.25H320.642ZM320.642 768.392V735.941H287.026V768.392H320.642ZM320.642 718.561V686.11H287.026V718.561H320.642ZM320.642 668.73V636.279H287.026V668.73H320.642ZM51.0012 868.081V835.63H17.3855V868.081H51.0012ZM51.0012 818.25V785.799H17.3855V818.25H51.0012ZM51.0012 768.392V735.941H17.3855V768.392H51.0012ZM51.0012 718.561V686.11H17.3855V718.561H51.0012ZM51.0012 668.73V636.279H17.3855V668.73H51.0012Z" fill="#262626"/>
<path d="M17.3855 303V320.105H51.0012V303H68.3867V343.921H269.613V303H286.999V320.105H320.614V303H338V606.469H320.614V586.696H286.999V606.469H269.613V563.678H68.4143V606.469H51.0287V586.696H17.3855V606.469H0V303H17.3855ZM140.02 460.881L175.533 424.03L198.531 446.168L162.632 483.486L140.02 460.881ZM197.32 408.905C196.247 407.887 195.01 407.365 193.607 407.42C192.204 407.42 190.966 407.97 189.975 409.042L181.778 417.567L204.775 439.788L213.055 431.125C214.073 430.108 214.458 428.815 214.458 427.413C214.458 426.01 213.908 424.69 212.918 423.783L197.32 408.905ZM154.269 492.204C151.243 493.221 148.162 494.129 145.136 495.146C142.11 496.164 139.084 497.154 136.003 498.172C128.796 500.482 124.862 501.802 124.009 502.049C123.157 502.269 123.707 498.942 125.467 491.984L131.189 470.066L131.657 469.571L154.269 492.204ZM269.613 361.301H68.4143V546.298H269.641V361.301H269.613ZM320.642 569.316V536.865H287.026V569.316H320.642ZM320.642 519.484V487.034H287.026V519.484H320.642ZM320.642 469.626V437.175H287.026V469.626H320.642ZM320.642 419.795V387.344H287.026V419.795H320.642ZM320.642 369.964V337.513H287.026V369.964H320.642ZM51.0012 569.316V536.865H17.3855V569.316H51.0012ZM51.0012 519.484V487.034H17.3855V519.484H51.0012ZM51.0012 469.626V437.175H17.3855V469.626H51.0012ZM51.0012 419.795V387.344H17.3855V419.795H51.0012ZM51.0012 369.964V337.513H17.3855V369.964H51.0012Z" fill="#262626"/>
<path d="M17.3855 0V17.1054H51.0012V0H68.3867V40.9208H269.613V0H286.999V17.1054H320.614V0H338V303.469H320.614V283.696H286.999V303.469H269.613V260.678H68.4143V303.469H51.0287V283.696H17.3855V303.469H0V0H17.3855ZM140.02 157.881L175.533 121.03L198.531 143.168L162.632 180.486L140.02 157.881ZM197.32 105.905C196.247 104.887 195.01 104.365 193.607 104.42C192.204 104.42 190.966 104.97 189.975 106.042L181.778 114.567L204.775 136.788L213.055 128.125C214.073 127.108 214.458 125.815 214.458 124.413C214.458 123.01 213.908 121.69 212.918 120.783L197.32 105.905ZM154.269 189.204C151.243 190.221 148.162 191.129 145.136 192.146C142.11 193.164 139.084 194.154 136.003 195.172C128.796 197.482 124.862 198.802 124.009 199.049C123.157 199.269 123.707 195.942 125.467 188.984L131.189 167.066L131.657 166.571L154.269 189.204ZM269.613 58.3012H68.4143V243.298H269.641V58.3012H269.613ZM320.642 266.316V233.865H287.026V266.316H320.642ZM320.642 216.484V184.034H287.026V216.484H320.642ZM320.642 166.626V134.175H287.026V166.626H320.642ZM320.642 116.795V84.3442H287.026V116.795H320.642ZM320.642 66.9639V34.5132H287.026V66.9639H320.642ZM51.0012 266.316V233.865H17.3855V266.316H51.0012ZM51.0012 216.484V184.034H17.3855V216.484H51.0012ZM51.0012 166.626V134.175H17.3855V166.626H51.0012ZM51.0012 116.795V84.3442H17.3855V116.795H51.0012ZM51.0012 66.9639V34.5132H17.3855V66.9639H51.0012Z" fill="#262626"/>
</svg>
