<svg width="308" height="878" viewBox="0 0 308 878" fill="none" xmlns="http://www.w3.org/2000/svg">
<path fill-rule="evenodd" clip-rule="evenodd" d="M156.145 0H121.163V139.653H134.708V468.305C94.3354 386.388 67.2073 363.529 50.7484 400.503C34.5775 436.831 23.9044 491.191 42.9022 537.237C103.486 684.077 15.9174 642.584 0.591172 765.556C-7.85773 833.346 75.7892 878 153.334 878C230.878 878 319.274 848.248 306.547 753.235C293.082 652.705 202.505 665.305 263.766 537.237C294.741 472.481 234.776 560.988 176.166 522.883V139.651L192.722 139.653L156.145 0ZM153.888 607.492C172.621 607.492 187.807 622.679 187.807 641.41C187.807 660.143 172.621 675.329 153.888 675.329C135.156 675.329 119.97 660.143 119.97 641.41C119.97 622.677 135.156 607.492 153.888 607.492ZM102.252 711.649H205.525V721.808H102.252V711.649ZM182.491 25.2635C183.425 28.8532 181.27 32.521 177.682 33.4539C174.092 34.3869 170.427 32.233 169.491 28.6446C168.557 25.0549 170.711 21.3885 174.3 20.4542C177.889 19.5213 181.558 21.6726 182.491 25.2635ZM201.818 99.576C202.752 103.166 200.598 106.832 197.008 107.765C193.42 108.701 189.751 106.547 188.818 102.957C187.884 99.3687 190.039 95.6996 193.629 94.7667C197.218 93.8338 200.883 95.9876 201.818 99.576ZM196.987 80.9979C197.92 84.5876 195.766 88.2553 192.176 89.1883C188.588 90.1212 184.92 87.9687 183.986 84.379C183.053 80.7893 185.206 77.1215 188.795 76.1886C192.385 75.2556 196.052 77.4108 196.987 80.9979ZM192.154 62.4198C193.087 66.0095 190.935 69.6772 187.344 70.6102C183.755 71.5431 180.088 69.3906 179.155 65.7996C178.223 62.2112 180.374 58.5434 183.966 57.6105C187.554 56.6762 191.221 58.8301 192.154 62.4198ZM187.323 43.8417C188.255 47.4313 186.102 51.0991 182.514 52.032C178.924 52.965 175.256 50.8112 174.322 47.2228C173.389 43.6331 175.543 39.9653 179.133 39.0324C182.721 38.0994 186.389 40.252 187.323 43.8417Z" fill="#F4F4F4"/>
</svg>
